{
	"asset":{
		"generator":"Khronos glTF Blender I/O v4.5.49",
		"version":"2.0"
	},
	"extensionsUsed":[
		"KHR_materials_emissive_strength",
		"KHR_lights_punctual"
	],
	"extensionsRequired":[
		"KHR_lights_punctual"
	],
	"extensions":{
		"KHR_lights_punctual":{
			"lights":[
				{
					"color":[
						1,
						1,
						1
					],
					"intensity":54351.41306588226,
					"type":"point",
					"name":"Light"
				}
			]
		}
	},
	"scene":0,
	"scenes":[
		{
			"name":"Scene",
			"nodes":[
				0,
				1,
				2,
				3,
				4,
				6
			]
		}
	],
	"nodes":[
		{
			"mesh":0,
			"name":"Cube",
			"translation":[
				-3.435624361038208,
				1.609586477279663,
				2.827307939529419
			]
		},
		{
			"extensions":{
				"KHR_lights_punctual":{
					"light":0
				}
			},
			"name":"Light",
			"rotation":[
				-0.28416627645492554,
				0.7269423007965088,
				0.34203392267227173,
				0.5232754945755005
			],
			"translation":[
				4.076245307922363,
				5.903861999511719,
				-1.0054539442062378
			]
		},
		{
			"camera":0,
			"name":"Camera",
			"rotation":[
				-0.23864330351352692,
				0.5141507983207703,
				0.1515214741230011,
				0.8097774982452393
			],
			"translation":[
				25.58164405822754,
				18.173545837402344,
				12.024951934814453
			]
		},
		{
			"mesh":1,
			"name":"Plane",
			"scale":[
				6.335341930389404,
				6.335341930389404,
				6.335341930389404
			]
		},
		{
			"mesh":2,
			"name":"Suzanne",
			"rotation":[
				0,
				0.4079947769641876,
				0,
				0.9129842519760132
			],
			"translation":[
				0.02587338350713253,
				2.3499393463134766,
				-3.0657639503479004
			]
		},
		{
			"mesh":3,
			"name":"Torus",
			"translation":[
				-0.01900458335876465,
				0.007190585136413574,
				0.012605726718902588
			]
		},
		{
			"children":[
				5
			],
			"mesh":4,
			"name":"Sphere",
			"scale":[
				1.5177338123321533,
				1.5177338123321533,
				1.5177338123321533
			],
			"translation":[
				3.1579742431640625,
				2.4762325286865234,
				1.5105011463165283
			]
		}
	],
	"cameras":[
		{
			"name":"Camera",
			"perspective":{
				"aspectRatio":1.7777777777777777,
				"yfov":0.39959652046304894,
				"zfar":100,
				"znear":0.10000000149011612
			},
			"type":"perspective"
		}
	],
	"materials":[
		{
			"doubleSided":true,
			"name":"Cube",
			"pbrMetallicRoughness":{
				"baseColorTexture":{
					"index":0
				},
				"metallicFactor":0,
				"roughnessFactor":0.5
			}
		},
		{
			"doubleSided":true,
			"name":"plane",
			"pbrMetallicRoughness":{
				"baseColorTexture":{
					"index":1
				},
				"metallicFactor":0,
				"roughnessFactor":0.5
			}
		},
		{
			"doubleSided":true,
			"name":"Monkey",
			"pbrMetallicRoughness":{
				"baseColorFactor":[
					0.13418135046958923,
					0.8017309904098511,
					0.2949700355529785,
					1
				],
				"metallicFactor":0.30000001192092896,
				"roughnessFactor":0.30689653754234314
			}
		},
		{
			"doubleSided":true,
			"emissiveFactor":[
				1,
				0.2883484959602356,
				0.3952258825302124
			],
			"extensions":{
				"KHR_materials_emissive_strength":{
					"emissiveStrength":1.1999999284744263
				}
			},
			"name":"Torus",
			"pbrMetallicRoughness":{
				"baseColorFactor":[
					0.8002511262893677,
					0.09271668642759323,
					0.19180485606193542,
					1
				],
				"metallicFactor":0,
				"roughnessFactor":0.5
			}
		},
		{
			"doubleSided":true,
			"name":"Sphere",
			"pbrMetallicRoughness":{
				"baseColorFactor":[
					0.2096770852804184,
					0.32232362031936646,
					0.8007017374038696,
					1
				],
				"metallicFactor":0,
				"roughnessFactor":0.475862056016922
			}
		}
	],
	"meshes":[
		{
			"name":"Cube",
			"primitives":[
				{
					"attributes":{
						"POSITION":0,
						"NORMAL":1,
						"TEXCOORD_0":2
					},
					"indices":3,
					"material":0
				}
			]
		},
		{
			"name":"Plane",
			"primitives":[
				{
					"attributes":{
						"POSITION":4,
						"NORMAL":5,
						"TEXCOORD_0":6
					},
					"indices":7,
					"material":1
				}
			]
		},
		{
			"name":"Suzanne",
			"primitives":[
				{
					"attributes":{
						"POSITION":8,
						"NORMAL":9,
						"TEXCOORD_0":10
					},
					"indices":11,
					"material":2
				}
			]
		},
		{
			"name":"Torus",
			"primitives":[
				{
					"attributes":{
						"POSITION":12,
						"NORMAL":13,
						"TEXCOORD_0":14
					},
					"indices":15,
					"material":3
				}
			]
		},
		{
			"name":"Sphere",
			"primitives":[
				{
					"attributes":{
						"POSITION":16,
						"NORMAL":17,
						"TEXCOORD_0":18
					},
					"indices":19,
					"material":4
				}
			]
		}
	],
	"textures":[
		{
			"sampler":0,
			"source":0
		},
		{
			"sampler":0,
			"source":1
		}
	],
	"images":[
		{
			"mimeType":"image/png",
			"name":"uv_testgrid",
			"uri":"textures/uv_testgrid.png"
		},
		{
			"mimeType":"image/jpeg",
			"name":"checkboard",
			"uri":"textures/checkboard.jpg"
		}
	],
	"accessors":[
		{
			"bufferView":0,
			"componentType":5126,
			"count":24,
			"max":[
				1,
				1,
				1
			],
			"min":[
				-1,
				-1,
				-1
			],
			"type":"VEC3"
		},
		{
			"bufferView":1,
			"componentType":5126,
			"count":24,
			"type":"VEC3"
		},
		{
			"bufferView":2,
			"componentType":5126,
			"count":24,
			"type":"VEC2"
		},
		{
			"bufferView":3,
			"componentType":5123,
			"count":36,
			"type":"SCALAR"
		},
		{
			"bufferView":4,
			"componentType":5126,
			"count":4,
			"max":[
				1,
				0,
				1
			],
			"min":[
				-1,
				0,
				-1
			],
			"type":"VEC3"
		},
		{
			"bufferView":5,
			"componentType":5126,
			"count":4,
			"type":"VEC3"
		},
		{
			"bufferView":6,
			"componentType":5126,
			"count":4,
			"type":"VEC2"
		},
		{
			"bufferView":7,
			"componentType":5123,
			"count":6,
			"type":"SCALAR"
		},
		{
			"bufferView":8,
			"componentType":5126,
			"count":31488,
			"max":[
				1.328185796737671,
				0.9392362236976624,
				0.8224414587020874
			],
			"min":[
				-1.328185796737671,
				-0.971822202205658,
				-0.7782661318778992
			],
			"type":"VEC3"
		},
		{
			"bufferView":9,
			"componentType":5126,
			"count":31488,
			"type":"VEC3"
		},
		{
			"bufferView":10,
			"componentType":5126,
			"count":31488,
			"type":"VEC2"
		},
		{
			"bufferView":11,
			"componentType":5123,
			"count":47232,
			"type":"SCALAR"
		},
		{
			"bufferView":12,
			"componentType":5126,
			"count":2304,
			"max":[
				1.25,
				0.25,
				1.25
			],
			"min":[
				-1.25,
				-0.25,
				-1.25
			],
			"type":"VEC3"
		},
		{
			"bufferView":13,
			"componentType":5126,
			"count":2304,
			"type":"VEC3"
		},
		{
			"bufferView":14,
			"componentType":5126,
			"count":2304,
			"type":"VEC2"
		},
		{
			"bufferView":15,
			"componentType":5123,
			"count":3456,
			"type":"SCALAR"
		},
		{
			"bufferView":16,
			"componentType":5126,
			"count":1984,
			"max":[
				0.9999997019767761,
				1,
				0.9999993443489075
			],
			"min":[
				-0.9999990463256836,
				-1,
				-1
			],
			"type":"VEC3"
		},
		{
			"bufferView":17,
			"componentType":5126,
			"count":1984,
			"type":"VEC3"
		},
		{
			"bufferView":18,
			"componentType":5126,
			"count":1984,
			"type":"VEC2"
		},
		{
			"bufferView":19,
			"componentType":5123,
			"count":2880,
			"type":"SCALAR"
		}
	],
	"bufferViews":[
		{
			"buffer":0,
			"byteLength":288,
			"byteOffset":0,
			"target":34962
		},
		{
			"buffer":0,
			"byteLength":288,
			"byteOffset":288,
			"target":34962
		},
		{
			"buffer":0,
			"byteLength":192,
			"byteOffset":576,
			"target":34962
		},
		{
			"buffer":0,
			"byteLength":72,
			"byteOffset":768,
			"target":34963
		},
		{
			"buffer":0,
			"byteLength":48,
			"byteOffset":840,
			"target":34962
		},
		{
			"buffer":0,
			"byteLength":48,
			"byteOffset":888,
			"target":34962
		},
		{
			"buffer":0,
			"byteLength":32,
			"byteOffset":936,
			"target":34962
		},
		{
			"buffer":0,
			"byteLength":12,
			"byteOffset":968,
			"target":34963
		},
		{
			"buffer":0,
			"byteLength":377856,
			"byteOffset":980,
			"target":34962
		},
		{
			"buffer":0,
			"byteLength":377856,
			"byteOffset":378836,
			"target":34962
		},
		{
			"buffer":0,
			"byteLength":251904,
			"byteOffset":756692,
			"target":34962
		},
		{
			"buffer":0,
			"byteLength":94464,
			"byteOffset":1008596,
			"target":34963
		},
		{
			"buffer":0,
			"byteLength":27648,
			"byteOffset":1103060,
			"target":34962
		},
		{
			"buffer":0,
			"byteLength":27648,
			"byteOffset":1130708,
			"target":34962
		},
		{
			"buffer":0,
			"byteLength":18432,
			"byteOffset":1158356,
			"target":34962
		},
		{
			"buffer":0,
			"byteLength":6912,
			"byteOffset":1176788,
			"target":34963
		},
		{
			"buffer":0,
			"byteLength":23808,
			"byteOffset":1183700,
			"target":34962
		},
		{
			"buffer":0,
			"byteLength":23808,
			"byteOffset":1207508,
			"target":34962
		},
		{
			"buffer":0,
			"byteLength":15872,
			"byteOffset":1231316,
			"target":34962
		},
		{
			"buffer":0,
			"byteLength":5760,
			"byteOffset":1247188,
			"target":34963
		}
	],
	"samplers":[
		{
			"magFilter":9729,
			"minFilter":9987
		}
	],
	"buffers":[
		{
			"byteLength":1252948,
			"uri":"testScene.bin"
		}
	]
}
